Coordinates
version=1
nRows=21
nColumns=38
inDegrees=no

Units are S.I. units (second, meters, Newtons, ...)
If the header above contains a line with 'inDegrees', this indicates whether rotational values are in degrees (yes) or radians (no).

endheader
time	pelvis_tilt	pelvis_list	pelvis_rotation	pelvis_tx	pelvis_ty	pelvis_tz	hip_flexion_r	hip_adduction_r	hip_rotation_r	knee_angle_r	ankle_angle_r	subtalar_angle_r	mtp_angle_r	hip_flexion_l	hip_adduction_l	hip_rotation_l	knee_angle_l	ankle_angle_l	subtalar_angle_l	mtp_angle_l	lumbar_extension	lumbar_bending	lumbar_rotation	arm_flex_r	arm_add_r	arm_rot_r	elbow_flex_r	pro_sup_r	wrist_flex_r	wrist_dev_r	arm_flex_l	arm_add_l	arm_rot_l	elbow_flex_l	pro_sup_l	wrist_flex_l	wrist_dev_l
50	-2.6685	1.29035	1.2263	0.838178	-0.699895	1.01414	0.249396	-0.0171144	-0.228729	0.0538492	-0.263698	0	0	0.191516	-0.193627	-0.201244	0	-0.394276	0	0	0.312434	0.155125	0.0193649	0.860441	0.138754	1.21818	1.65555	1.53555	0	0	0.658143	0.0314025	1.5708	0.375025	1.5708	0	0
50.01	-2.66518	1.2899	1.22397	0.838447	-0.699913	1.0142	0.249365	-0.0159248	-0.229729	0.0528628	-0.263863	0	0	0.194169	-0.196908	-0.213535	0.000218617	-0.390667	0	0	0.310751	0.155642	0.0201675	0.861218	0.137395	1.2192	1.65766	1.52986	0	0	0.659987	0.0330487	1.5708	0.373392	1.5708	0	0
50.02	-2.66414	1.29017	1.22264	0.837997	-0.700272	1.01412	0.248479	-0.0155673	-0.228443	0.0531461	-0.263987	0	0	0.191128	-0.195191	-0.20136	0	-0.395255	0	0	0.312334	0.155292	0.0201294	0.860563	0.136165	1.22004	1.65893	1.52707	0	0	0.65777	0.0326665	1.5708	0.37295	1.5708	0	0
50.03	-2.66445	1.28984	1.22257	0.837914	-0.700389	1.01408	0.248808	-0.0154028	-0.227634	0.0530289	-0.264018	0	0	0.191232	-0.195394	-0.201996	0	-0.394832	0	0	0.312579	0.155231	0.0214893	0.860249	0.1348	1.2198	1.6599	1.52462	0	0	0.657728	0.0332699	1.5708	0.372244	1.5708	0	0
50.04	-2.664	1.28956	1.2221	0.837824	-0.700502	1.01404	0.248551	-0.0149839	-0.226702	0.0522157	-0.264127	0	0	0.191367	-0.195742	-0.202035	0	-0.393869	0	0	0.312725	0.155174	0.0223934	0.859887	0.133554	1.21898	1.6605	1.52173	0	0	0.657831	0.0336216	1.5708	0.371843	1.5708	0	0
50.05	-2.6633	1.28942	1.22146	0.837739	-0.700648	1.01402	0.248017	-0.0145154	-0.225464	0.0511447	-0.264363	0	0	0.191375	-0.196151	-0.202112	0	-0.393015	0	0	0.312891	0.154967	0.0229711	0.859325	0.132404	1.21768	1.6608	1.51871	0	0	0.657843	0.0335905	1.5708	0.371669	1.5708	0	0
50.06	-2.66224	1.28956	1.2207	0.837668	-0.700775	1.01405	0.247213	-0.0140765	-0.224478	0.0503812	-0.264435	0	0	0.191123	-0.19649	-0.202064	0	-0.392595	0	0	0.312789	0.15465	0.0230009	0.85887	0.131546	1.21621	1.66063	1.51475	0	0	0.657818	0.0332817	1.5708	0.371456	1.5708	0	0
50.07	-2.66101	1.2897	1.21991	0.837604	-0.700905	1.01408	0.246776	-0.0137505	-0.225159	0.0504991	-0.263859	0	0	0.190873	-0.196809	-0.201635	0	-0.392471	0	0	0.312667	0.154469	0.0229608	0.858501	0.130651	1.2147	1.66036	1.50998	0	0	0.65775	0.0328542	1.5708	0.371523	1.5708	0	0
50.08	-2.66159	1.28929	1.22034	0.837467	-0.700939	1.01403	0.247408	-0.0136489	-0.225143	0.0506691	-0.264761	0	0	0.191352	-0.196901	-0.201562	0	-0.392412	0	0	0.312905	0.154391	0.0236795	0.858112	0.129775	1.21298	1.65978	1.51389	0	0	0.657792	0.0325691	1.5708	0.371499	1.5708	0	0
50.09	-2.66133	1.28905	1.22039	0.837397	-0.701027	1.014	0.247823	-0.0135049	-0.226756	0.0513031	-0.264411	0	0	0.191608	-0.197114	-0.201037	0	-0.392272	0	0	0.313206	0.154294	0.0237114	0.858035	0.128727	1.21196	1.65969	1.50993	0	0	0.657483	0.0321047	1.5708	0.371401	1.5708	0	0
50.1	-2.69259	1.29363	1.2528	0.837077	-0.700588	1.0128	0.255638	-0.0337328	-0.25975	0.0731045	-0.257077	0	0	0.189994	-0.186942	-0.203127	0	-0.389653	0	0	0.310732	0.141113	0.0306979	0.852284	0.12773	1.19705	1.66497	1.47657	0	0	0.660796	0.027833	1.5708	0.380346	1.5708	0	0
50.11	-2.65926	1.28969	1.21903	0.837293	-0.701196	1.01399	0.247964	-0.0135405	-0.233683	0.0542818	-0.261358	0	0	0.19097	-0.197582	-0.201236	0	-0.391835	0	0	0.310813	0.154122	0.0264237	0.85129	0.125397	1.20069	1.66601	1.48229	0	0	0.657771	0.0331246	1.5708	0.369931	1.5708	0	0
50.12	-2.53667	1.27359	1.09395	0.834826	-0.70009	1.01027	0.246162	0.0331909	-0.216143	0.0462777	-0.261508	0	0	0.189112	-0.239341	-0.158778	0	-0.379461	0	0	0.312633	0.198484	0.0261722	0.863212	0.119101	1.19849	1.67194	1.47577	0	0	0.664427	0.0324608	1.5708	0.384759	1.5708	0	0
50.13	-2.53254	1.27302	1.08919	0.834593	-0.700088	1.01025	0.244317	0.0355938	-0.204806	0.041527	-0.263156	0	0	0.188464	-0.240972	-0.152636	0	-0.372825	0	0	0.311644	0.200337	0.0265541	0.863006	0.118291	1.19747	1.6737	1.48239	0	0	0.664901	0.0308138	1.5708	0.386847	1.5708	0	0
50.14	-2.53232	1.27331	1.08966	0.834622	-0.700194	1.01028	0.245658	0.0349018	-0.214929	0.0458435	-0.260754	0	0	0.188368	-0.2408	-0.153396	0	-0.374431	0	0	0.311245	0.200269	0.0256421	0.861989	0.11791	1.19608	1.67491	1.49998	0	0	0.664212	0.0318687	1.5708	0.383094	1.5708	0	0
50.15	-2.53693	1.2742	1.09456	0.834675	-0.700446	1.01036	0.248079	0.0322621	-0.231886	0.0531146	-0.258201	0	0	0.188194	-0.239022	-0.158338	0	-0.37849	0	0	0.312508	0.19858	0.0230101	0.866275	0.118432	1.20322	1.67188	1.52076	0	0	0.661896	0.0311715	1.5708	0.379012	1.5708	0	0
50.16	-2.69537	1.29433	1.25418	0.836591	-0.701143	1.01294	0.25568	-0.0341057	-0.262412	0.0751213	-0.257497	0	0	0.188572	-0.186589	-0.205057	0	-0.389901	0	0	0.309927	0.14137	0.0290012	0.855008	0.124503	1.19995	1.66855	1.52695	0	0	0.655953	0.0268015	1.5708	0.36774	1.5708	0	0
50.17	-2.66207	1.29067	1.22006	0.836801	-0.70126	1.01434	0.246925	-0.0134859	-0.230723	0.0540176	-0.264197	0	0	0.189	-0.197248	-0.201192	0	-0.39169	0	0	0.308058	0.153683	0.0274532	0.847609	0.121382	1.19479	1.67665	1.51943	0	0	0.653619	0.0353198	1.5708	0.352741	1.5708	0	0
50.18	-2.65851	1.28972	1.21632	0.836564	-0.701267	1.0142	0.247793	-0.0119027	-0.23009	0.0545043	-0.263856	0	0	0.18966	-0.198918	-0.202452	0	-0.390908	0	0	0.308329	0.154841	0.0271133	0.847517	0.120843	1.19429	1.67886	1.52712	0	0	0.652923	0.0364536	1.5708	0.348144	1.5708	0	0
50.19	-2.657	1.28892	1.21498	0.836472	-0.701292	1.01405	0.248927	-0.0113279	-0.231429	0.0557388	-0.263407	0	0	0.190467	-0.199758	-0.203564	0	-0.389332	0	0	0.308834	0.155347	0.0264293	0.847079	0.12032	1.19399	1.68091	1.53552	0	0	0.652107	0.0371601	1.5708	0.344054	1.5708	0	0
50.2	-2.65807	1.28788	1.21691	0.836519	-0.7012	1.01383	0.251006	-0.011638	-0.236058	0.0568536	-0.262659	0	0	0.194522	-0.202245	-0.218189	0.000306443	-0.384563	0	0	0.308007	0.155072	0.0263066	0.846503	0.119907	1.19319	1.68237	1.54707	0	0	0.653482	0.038098	1.5708	0.340496	1.5708	0	0
